<svg id="Режим_изоляции" data-name="Режим изоляции" xmlns="http://www.w3.org/2000/svg" xmlns:xlink="http://www.w3.org/1999/xlink" viewBox="0 0 273.68 78.35"><defs><style>.cls-1,.cls-5{fill:none;}.cls-2{clip-path:url(#clip-path);}.cls-3{fill:#231f20;}.cls-4{clip-path:url(#clip-path-2);}.cls-5{stroke:#b69b86;stroke-width:0.5px;}</style><clipPath id="clip-path" transform="translate(-18.48)"><polygon class="cls-1" points="9.17 1.96 0 41.68 153.02 41.68 162.19 1.96 9.17 1.96"/></clipPath><clipPath id="clip-path-2" transform="translate(-18.48)"><polygon class="cls-1" points="154.42 35.15 145.35 74.47 291.78 74.47 291.78 35.15 154.42 35.15"/></clipPath></defs><title>logo</title><g class="cls-2"><path class="cls-3" d="M157.73,21.81c0,9.11-1.28,12.53-3.84,14.73a8.75,8.75,0,0,1-5.83,1.69h-5.32V5.34h5.32a9.07,9.07,0,0,1,5.83,1.74c2.56,2.2,3.84,6.8,3.84,14.73m5.58,0c0-9.46-6.8-17.09-15.25-17.09h-15v.61h4.4V38.23h-4.4v.61h15c8.44,0,15.25-7.67,15.25-17m-37.18,17h1V6.77c0-1.13.92-1.43,1.79-1.43h2.61V4.72h-9.36v.61h2.66c.72,0,1.74.31,1.74,1.43V30L110.38,4.72H99.94v.61h4.35V36.75a1.49,1.49,0,0,1-1.69,1.48H99.94v.61h9.36v-.61h-2.66c-.82,0-1.74-.31-1.74-1.48V5.8Zm-30.36-17c0,9.52-1.28,13.25-3.79,15.5-1.53,1.43-3.53,1.84-5.88,1.84s-4.35-.41-5.88-1.84c-2.51-2.25-3.74-6-3.74-15.5,0-8.34,1.23-13.25,3.74-15.5,1.54-1.43,3.53-1.84,5.88-1.84s4.35.41,5.88,1.84c2.51,2.25,3.79,7.16,3.79,15.5m5.58,0c0-9.92-6.8-17.9-15.24-17.9-8.9,0-15.25,8.34-15.25,17.9,0,9.87,6.8,17.86,15.25,17.86s15.24-8,15.24-17.86m-31.72,17V28.46h-.51c0,4.91-2.35,9.77-9.46,9.77H54V5.34h4.35V4.72H44.31v.61h4.4V38.23h-4.4v.61ZM39.76,30.1c0,6.34-2.61,8.13-7.06,8.13H28.15V20.94h3.94c4.71,0,7.67,1.43,7.67,9.16M37.51,12.81c0,5.93-1.48,7.57-5,7.57H28.15v-15H31c4.71,0,6.55,1.79,6.55,7.47m7.47,17c0-5.73-5.32-9.16-11.46-9.16,4,0,9-3.43,9-8,0-5.32-5.12-7.88-10.85-7.88H18.48v.61h4.4V38.23h-4.4v.61H34c7.32,0,11-4.45,11-9.06" transform="translate(-18.48)"/></g><g class="cls-4"><path class="cls-3" d="M292.16,48.34V37.9H264.89V48.34h.51c0-5.58,2.51-9.82,9.31-9.82h1V71.41h-4.35V72h14.07v-.61h-4.4V38.51h1.07c6.8,0,9.52,4.25,9.52,9.82ZM258.35,72h1V39.95c0-1.13.92-1.43,1.79-1.43h2.61V37.9h-9.36v.61H257c.72,0,1.74.31,1.74,1.43V63.17L242.59,37.9H232.15v.61h4.35V69.92a1.49,1.49,0,0,1-1.69,1.48h-2.66V72h9.36v-.61h-2.66c-.82,0-1.74-.31-1.74-1.48V39Zm-27.64,0V62h-.51c0,5-2.71,9.36-10.44,9.36h-5.93V54.78h2c3.84,0,5.88,2.2,5.88,5.47h.51V48.74h-.51c0,3.27-2,5.42-5.88,5.42h-2V38.51h5.83c5.83,0,8.08,3.89,8.08,8.39h.51v-9H204.16v.61h4.4V71.41h-4.4V72Zm-44.59.72h.56l10.95-32.18c.61-1.84,1.33-2,2-2h3.07V37.9h-9.62v.61h3.22c.72,0,1.38.15.77,2l-8.54,25.07L177.37,38.51h5.17V37.9H167.09v.61h4.6ZM168.41,72V62h-.51c0,5-2.71,9.36-10.44,9.36h-5.93V54.78h2c3.84,0,5.88,2.2,5.88,5.47h.51V48.74h-.51c0,3.27-2,5.42-5.88,5.42h-2V38.51h5.83c5.83,0,8.08,3.89,8.08,8.39H166v-9h-24.1v.61h4.4V71.41h-4.4V72Z" transform="translate(-18.48)"/></g><line class="cls-5" x1="144.23" y1="0.06" x2="126.17" y2="78.29"/></svg>