<svg xmlns="http://www.w3.org/2000/svg" width="96.59" height="50" viewBox="0 0 96.59 50">
  <metadata><?xpacket begin="﻿" id="W5M0MpCehiHzreSzNTczkc9d"?>
<x:xmpmeta xmlns:x="adobe:ns:meta/" x:xmptk="Adobe XMP Core 5.6-c138 79.159824, 2016/09/14-01:09:01        ">
   <rdf:RDF xmlns:rdf="http://www.w3.org/1999/02/22-rdf-syntax-ns#">
      <rdf:Description rdf:about=""/>
   </rdf:RDF>
</x:xmpmeta>
                                                                                                    
                                                                                                    
                                                                                                    
                                                                                                    
                                                                                                    
                                                                                                    
                                                                                                    
                                                                                                    
                                                                                                    
                                                                                                    
                                                                                                    
                                                                                                    
                                                                                                    
                                                                                                    
                                                                                                    
                                                                                                    
                                                                                                    
                                                                                                    
                                                                                                    
                                                                                                    
                           
<?xpacket end="w"?></metadata>
<defs>
    <style>
      .cls-1 {
        fill: #231f20;
        fill-rule: evenodd;
      }
    </style>
  </defs>
  <path id="Shape_1_copy" data-name="Shape 1 copy" class="cls-1" d="M7027.46,86.316c-1.59,0-2.53-1.5-2.53-4.039,0-2.4.87-3.788,2.37-3.788,1.6,0,2.53,1.533,2.53,4.165,0,2.315-.87,3.662-2.37,3.662m0.02-8.682c-2.61,0-4.36,1.99-4.36,4.925,0,2.712,1.7,4.6,4.11,4.6,2.57,0,4.41-2.082,4.41-4.945,0-2.727-1.68-4.585-4.16-4.585m-8.95,3.9,2.5-2.535,1.66-.585V77.964h-3.96v0.453l1.13,0.49-2.91,3.2,3.44,4.9h2.56V86.534l-1.24-.548m-7.96.548V87h4.4V86.534l-1.45-.658V72.562l-3.04.756v0.415l1.53,0.5V85.877m-8.81-5.38h0.58l0.85-1.687h3l-4.78,7.507v0.616h6.8v-2.8h-0.54l-0.94,1.953h-3.33l4.81-7.531v-0.6h-6.45m-4.22.738-0.15.094V77.6l-2.95.768v0.431l1.42,0.451v6.519l-1.42.663V86.9h4.71V86.428l-1.76-.663V79.246a3.522,3.522,0,0,1,1.27-.281c0.08,0,.23.02,0.42,0.02l0.5,1.121h1.17V78.013a1.479,1.479,0,0,0-.85-0.281,5.842,5.842,0,0,0-2.36.968m-6.74,7.014-0.13.041a3.5,3.5,0,0,1-.54.13,2.5,2.5,0,0,1-.65.076,1.464,1.464,0,0,1-1.63-1.508,1.346,1.346,0,0,1,1.17-1.43,11.572,11.572,0,0,1,1.78-.366v3.058Zm2,0a0.543,0.543,0,0,1-.47-0.7v-5c0-1.5-.8-2.225-2.46-2.225a9.26,9.26,0,0,0-2.95.638v1.712h1.01l0.72-1.567a2.207,2.207,0,0,1,.45-0.032c1.29,0,1.7.374,1.7,1.548V82.13a22.014,22.014,0,0,0-2.85.435,2.087,2.087,0,0,0-1.8,2.151A2.209,2.209,0,0,0,6993.1,87a2.127,2.127,0,0,0,.83-0.132,7.8,7.8,0,0,0,.76-0.355l0.58-.3,0.2-.117a0.876,0.876,0,0,0,.9.907h0.07a3.236,3.236,0,0,0,.71-0.132l1.22-.454V86.017m-8.6-7,1.02-.612V77.953h-3.43v0.456l1.28,0.612-1.83,5.661-0.05-.167c-0.14-.531-0.18-0.664-0.29-1.011l-1.82-5.55h-0.51l-2.36,6.728-0.06-.281-0.15-.513-0.15-.514-1.45-4.446,1.31-.519V77.953h-4.04v0.456l1.09,0.519,2.79,8h0.76l2.18-6.175,1.96,6.175h0.77m-10.42-6.044c0-1.936-.91-3.179-2.33-3.179a6.037,6.037,0,0,0-2.54.956l-0.22.1v-6.2l-2.99.82v0.447l1.5,0.532V85.7l-1.42.711v0.51h4.17v-0.51l-1.26-.711V79.232a5.529,5.529,0,0,1,1.54-.206c1.44,0,2.04.69,2.04,2.325V85.7l-1.32.711v0.51h4.23v-0.51l-1.4-.711m-9.13.1a6.976,6.976,0,0,1-1.66.2,2.7,2.7,0,0,1-2.38-1.049,4.452,4.452,0,0,1-.81-2.706c0-2.212,1.27-3.848,2.94-3.848a2.93,2.93,0,0,1,.35.017l0.74,1.694h1.04V78.152a6.093,6.093,0,0,0-2.1-.421c-2.73,0-4.56,1.983-4.56,4.937,0,2.607,1.47,4.459,3.57,4.459a6.5,6.5,0,0,0,2.1-.4l0.87-.286,0.17-.058-0.1-.612m79.64-12.7a3.58,3.58,0,0,0-3.88,3.747v1.148h-1.46v0.88h1.46v6.908l-1.46.684v0.49h4.79v-0.49l-1.8-.684V78.844h2.55v-0.88h-2.55V76.522a2.618,2.618,0,0,1,.7-2.133,2.532,2.532,0,0,1,1.56-.571c0.05,0,.14.02,0.24,0.02l0.48,1.194h1.11V73.368a4.331,4.331,0,0,0-1.74-.3m-89.6,6.862-1.98-1.339c-1.32-.879-1.6-1.278-1.6-2.2,0-1.314.9-1.931,2.79-1.931a9.2,9.2,0,0,1,.94.058l0.15,0.017,0.9,2.4h0.7V74.1l-0.28-.06-0.77-.181c-0.25-.06-0.57-0.12-1-0.181-0.53-.059-1.1-0.118-1.42-0.118a3.371,3.371,0,0,0-3.6,3.513,2.994,2.994,0,0,0,.43,1.69,4.47,4.47,0,0,0,1.67,1.579l1.84,1.255c1.32,0.9,1.62,1.357,1.62,2.334,0,1.4-.92,2.141-2.67,2.141a7.858,7.858,0,0,1-1.38-.1l-0.92-2.473h-0.68v2.933l0.19,0.059,1.05,0.259a10.5,10.5,0,0,0,2.28.318c2.43,0,4.02-1.419,4.02-3.633a3.544,3.544,0,0,0-.57-2.01,4.32,4.32,0,0,0-1.71-1.5m77.64-.61a3.491,3.491,0,0,1,1.48-.3c1.7,0,2.83,1.49,2.83,3.733,0,2.438-1.24,3.3-3.33,3.3a7.605,7.605,0,0,1-.98-0.062V79.321Zm1.11,7.629a4.825,4.825,0,0,0,4.87-4.757c0-2.476-1.42-4.357-3.29-4.357a6.989,6.989,0,0,0-2.69,1.045V77.656l-3.06.772V78.88l1.49,0.521V90.646l-1.49.614v0.5h4.91v-0.5l-1.85-.614V86.793a3.706,3.706,0,0,0,1.11.157m-25.28,12.81a0.284,0.284,0,0,1-.26-0.33,14.156,14.156,0,0,1-.04-1.478V96.761c0-1.03,0-1.217.02-1.432a0.334,0.334,0,0,1,.25-0.388,1.4,1.4,0,0,1,.2-0.02l0.1-.066c0-.039-0.04-0.056-0.14-0.056-0.25,0-.65.024-0.81,0.024-0.19,0-.62-0.024-0.87-0.024-0.11,0-.16.017-0.16,0.056l0.11,0.066a1.049,1.049,0,0,1,.24.03,0.349,0.349,0,0,1,.23.379c0.01,0.215.01,0.4,0.01,1.432v1.191a14.047,14.047,0,0,1-.04,1.474,0.291,0.291,0,0,1-.19.334,0.878,0.878,0,0,1-.24.031c-0.08,0-.11.019-0.11,0.055s0.05,0.062.14,0.062c0.26,0,.69-0.015.83-0.015,0.19,0,.61.015,1.05,0.015l0.13-.062-0.11-.055a2.169,2.169,0,0,1-.34-0.031M7030.5,94.8c-0.32,0-.58.027-0.65,0.027-0.14,0-.46-0.027-0.81-0.027-0.1,0-.17.008-0.17,0.061s0.03,0.065.1,0.065a1.16,1.16,0,0,1,.36.038c0.16,0.066.22,0.2,0.23,0.608l0.06,3.039h-0.03c-0.11-.107-1.02-1.082-1.48-1.541-0.97-.985-1.98-2.087-2.06-2.175a0.531,0.531,0,0,0-.25-0.208c-0.06,0-.09.094-0.09,0.231l-0.06,4c0,0.589-.03.787-0.2,0.842a1.266,1.266,0,0,1-.3.034l-0.11.055c0,0.053.06,0.062,0.15,0.062,0.34,0,.66-0.018.72-0.018,0.12,0,.4.018,0.82,0.018,0.1,0,.16-0.011.16-0.062l-0.12-.055a0.927,0.927,0,0,1-.34-0.052c-0.13-.039-0.22-0.22-0.23-0.751l-0.08-2.838h0.02c0.12,0.128.87,0.974,1.59,1.71,0.7,0.693,1.55,1.576,1.97,1.986l0.23,0.143c0.06,0,.09-0.058.09-0.206l0.07-4.266c0.01-.382.06-0.522,0.25-0.577a0.791,0.791,0,0,1,.2-0.017c0.08,0,.12-0.023.12-0.065s-0.07-.061-0.16-0.061m6.78,3.009h-1.24l-0.02-.046,0.61-1.664,0.04-.066,0.03,0.066,0.6,1.671Zm2.25,1.984a1.106,1.106,0,0,1-.28-0.032,0.98,0.98,0,0,1-.59-0.731c-0.43-1.034-1.5-3.786-1.65-4.159a0.276,0.276,0,0,0-.17-0.218c-0.07,0-.11.074-0.19,0.273l-1.68,4.244a0.745,0.745,0,0,1-.56.61l-0.21.013-0.08.055c0,0.051.04,0.06,0.13,0.06,0.35,0,.71-0.014.78-0.014,0.21,0,.5.014,0.72,0.014l0.11-.06c0-.045-0.02-0.055-0.1-0.055h-0.1c-0.21,0-.27-0.089-0.27-0.211a1.23,1.23,0,0,1,.1-0.412l0.36-.963,0.06-.059h1.49l0.07,0.045,0.53,1.433a0.11,0.11,0,0,1-.06.162l-0.09.061c0,0.046.08,0.046,0.2,0.051,0.53,0.009,1.02.009,1.26,0.009s0.31-.009.31-0.06m-21.21-.178c-1.28,0-2.05-1.116-2.05-2.527,0-1.676.88-2.115,1.64-2.115,1.1,0,1.96.943,1.96,2.457,0,1.952-1.08,2.185-1.55,2.185M7018.2,94.7a2.587,2.587,0,0,0-2.76,2.651,2.553,2.553,0,0,0,2.69,2.645,2.656,2.656,0,0,0,2.77-2.773,2.435,2.435,0,0,0-2.7-2.523m-45.84,4.963c-1.28,0-2.05-1.116-2.05-2.527,0-1.676.88-2.115,1.65-2.115,1.09,0,1.95.943,1.95,2.457,0,1.952-1.08,2.185-1.55,2.185m-0.21-4.963a2.593,2.593,0,0,0-2.76,2.651,2.559,2.559,0,0,0,2.69,2.645,2.656,2.656,0,0,0,2.77-2.773,2.435,2.435,0,0,0-2.7-2.523m74.32,4.251a0.816,0.816,0,0,1-.17.4,1,1,0,0,1-.78.2,1.212,1.212,0,0,1-.81-0.147,2.984,2.984,0,0,1-.14-1.455V96.761c0-1.027,0-1.217.01-1.432a0.327,0.327,0,0,1,.25-0.388,2.258,2.258,0,0,1,.26-0.017c0.08,0,.12-0.015.12-0.064s-0.05-.061-0.14-0.061c-0.26,0-.75.026-0.91,0.026-0.18,0-.6-0.026-0.91-0.026-0.1,0-.15.015-0.15,0.061l0.12,0.064a1.12,1.12,0,0,1,.21.017,0.332,0.332,0,0,1,.29.388c0.02,0.215.02,0.405,0.02,1.432v1.192a13.573,13.573,0,0,1-.04,1.438,0.364,0.364,0,0,1-.19.37,0.809,0.809,0,0,1-.24.031c-0.08,0-.11.019-0.11,0.055s0.05,0.062.13,0.062c0.27,0,.69-0.015.84-0.015,0.55,0,.99.039,1.95,0.039,0.34,0,.38-0.034.42-0.181a5.92,5.92,0,0,0,.1-0.78l-0.05-.113m-83.02-1.489a0.665,0.665,0,0,1-.48.115,1.6,1.6,0,0,1-.5-0.068l-0.07-.121v-2.05l0.07-.1a1.74,1.74,0,0,1,.35-0.025,1.078,1.078,0,0,1,1.02,1.238,1.2,1.2,0,0,1-.39,1.014m2.68,2.422-0.19-.019a1.351,1.351,0,0,1-.74-0.46c-0.4-.421-0.86-1.026-1.45-1.782a1.9,1.9,0,0,0,.88-1.514,1.2,1.2,0,0,0-.45-0.926,2.145,2.145,0,0,0-1.24-.292c-0.2,0-.71.026-0.94,0.026-0.14,0-.56-0.026-0.91-0.026-0.1,0-.14.017-0.14,0.062l0.11,0.064a1.773,1.773,0,0,1,.26.017,0.323,0.323,0,0,1,.28.386c0.02,0.219.02,0.407,0.02,1.437v1.19a13.609,13.609,0,0,1-.04,1.439,0.359,0.359,0,0,1-.19.368,0.761,0.761,0,0,1-.24.031c-0.08,0-.11.02-0.11,0.056s0.05,0.068.14,0.068c0.26,0,.68-0.025.81-0.025,0.1,0,.6.025,0.98,0.025,0.09,0,.13-0.025.13-0.068l-0.07-.056a1.884,1.884,0,0,1-.33-0.031,0.319,0.319,0,0,1-.26-0.368,13.722,13.722,0,0,1-.04-1.449V97.848l0.06-.057,0.58,0.017,0.12,0.051c0.09,0.1.4,0.557,0.66,0.929a3.349,3.349,0,0,0,.92,1,1.344,1.344,0,0,0,.71.129h0.64c0.08,0,.12-0.017.12-0.068M6955.23,94.8c-0.31,0-.69.024-0.97,0.024-0.18,0-.61-0.024-0.96-0.024-0.1,0-.15.017-0.15,0.064l0.11,0.058a1.766,1.766,0,0,1,.27.02,0.332,0.332,0,0,1,.28.388c0.02,0.215.02,0.4,0.02,1.433v1.189a13.539,13.539,0,0,1-.04,1.438,0.35,0.35,0,0,1-.19.372,0.878,0.878,0,0,1-.24.031c-0.08,0-.11.019-0.11,0.055s0.05,0.062.13,0.062c0.27,0,.7-0.016.85-0.016,0.17,0,.59.016,1.03,0.016l0.13-.062-0.11-.055a2.169,2.169,0,0,1-.34-0.031,0.318,0.318,0,0,1-.26-0.363c-0.03-.291-0.03-0.827-0.03-1.446v-2.7l0.05-.131a1.039,1.039,0,0,1,.93.236,1.315,1.315,0,0,1,.39,1.013,1.057,1.057,0,0,1-.89,1.117c-0.14,0-.19.02-0.19,0.076l0.08,0.058,0.14,0.008a1.587,1.587,0,0,0,1.65-1.637,1.244,1.244,0,0,0-.34-0.809,1.612,1.612,0,0,0-1.24-.383m26.99-.014a1.129,1.129,0,0,1-.27.027c-0.15.011-1.51,0.011-1.76,0.011-0.2,0-.62-0.024-0.97-0.024-0.09,0-.15.013-0.15,0.069l0.11,0.057a1.661,1.661,0,0,1,.26.017,0.325,0.325,0,0,1,.29.387c0.01,0.216.01,0.405,0.01,1.434v1.191c0,0.647,0,1.154-.03,1.437a0.353,0.353,0,0,1-.19.372,0.922,0.922,0,0,1-.24.03l-0.1.055c0,0.051.04,0.06,0.14,0.06,0.25,0,.67-0.013.85-0.013s0.59,0.013,1.01.013c0.1,0,.15-0.013.15-0.06s-0.03-.055-0.12-0.055a2.286,2.286,0,0,1-.33-0.03,0.324,0.324,0,0,1-.26-0.372c-0.03-.283-0.03-0.79-0.03-1.437V97.4l0.04-.062c0.11,0,.82,0,0.99.026a0.4,0.4,0,0,1,.35.24,1,1,0,0,1,.03.211l0.06,0.1,0.07-.133c0-.044.01-0.355,0.02-0.5,0.02-.2.05-0.375,0.05-0.414l-0.04-.061-0.08.067a0.358,0.358,0,0,1-.29.12,2.386,2.386,0,0,1-.3.012l-0.86.007-0.04-.065V95.255l0.06-.094,1.03,0.019a0.466,0.466,0,0,1,.43.21,0.528,0.528,0,0,1,.05.255l0.06,0.1,0.07-.088c0.01-.09.02-0.48,0.03-0.547,0.02-.175.06-0.26,0.06-0.308l-0.05-.06m7.55,4.241a0.562,0.562,0,0,1-.29.5,1.743,1.743,0,0,1-.63.08c-0.68,0-.79-0.1-0.8-0.571-0.01-.187,0-0.811,0-1.041V97.415l0.04-.067c0.16,0,.82.008,0.95,0.022a0.368,0.368,0,0,1,.37.259c0.02,0.09.02,0.179,0.03,0.25l0.06,0.056,0.05-.127c0-.05.02-0.322,0.03-0.453,0.02-.343.05-0.454,0.05-0.493l-0.04-.056-0.11.089a0.435,0.435,0,0,1-.32.1c-0.15.018-.92,0.018-1.06,0.018l-0.05-.074V95.224l0.05-.067c0.13,0,.83.019,0.95,0.023a0.431,0.431,0,0,1,.44.249,0.824,0.824,0,0,1,.04.239l0.06,0.094,0.07-.073c0.01-.076.02-0.376,0.03-0.441a3.472,3.472,0,0,1,.06-0.444l-0.04-.06-0.11.028c-0.06.013-.16,0.024-0.29,0.042s-1.46.009-1.67,0.009c-0.19,0-.61-0.026-0.96-0.026-0.1,0-.15.017-0.15,0.065l0.12,0.058a1.73,1.73,0,0,1,.26.02,0.327,0.327,0,0,1,.28.389c0.02,0.216.02,0.4,0.02,1.434v1.19a13.6,13.6,0,0,1-.04,1.439,0.359,0.359,0,0,1-.19.368,0.856,0.856,0,0,1-.24.031c-0.08,0-.11.02-0.11,0.056s0.05,0.062.14,0.062c0.26,0,.68-0.015.84-0.015,0.39,0,.84.035,1.85,0.035,0.25,0,.31,0,0.36-0.171a6.038,6.038,0,0,0,.08-0.752l-0.05-.123m13.66-2.054-0.19-.14a1.285,1.285,0,0,1-.71-0.978,0.707,0.707,0,0,1,.8-0.693,0.825,0.825,0,0,1,.72.329,0.774,0.774,0,0,1,.18.444c0,0.084.02,0.126,0.07,0.126s0.07-.058.07-0.207c0-.53.02-0.727,0.02-0.812l-0.09-.075a2.977,2.977,0,0,0-.88-0.12,1.363,1.363,0,0,0-1.55,1.281,2.025,2.025,0,0,0,.99,1.6l0.31,0.243a1.291,1.291,0,0,1,.65,1.083,0.822,0.822,0,0,1-.9.771,0.928,0.928,0,0,1-.95-0.689,1.564,1.564,0,0,1-.06-0.342l-0.06-.11c-0.06,0-.08.076-0.08,0.175s-0.04.514-.04,0.884a0.192,0.192,0,0,0,.13.23,2.238,2.238,0,0,0,.97.172,1.864,1.864,0,0,0,1.06-.275,1.379,1.379,0,0,0,.64-1.174,2.13,2.13,0,0,0-1.1-1.725m-7.38,0-0.19-.14a1.259,1.259,0,0,1-.71-0.978,0.7,0.7,0,0,1,.79-0.693,0.833,0.833,0,0,1,.73.329,0.815,0.815,0,0,1,.17.444c0,0.084.03,0.126,0.07,0.126,0.06,0,.08-0.058.08-0.207,0-.53.02-0.727,0.02-0.812l-0.09-.075a3.059,3.059,0,0,0-.89-0.12,1.359,1.359,0,0,0-1.54,1.281,2,2,0,0,0,.99,1.6l0.3,0.243a1.283,1.283,0,0,1,.66,1.083,0.819,0.819,0,0,1-.89.771,0.924,0.924,0,0,1-.96-0.689,1.564,1.564,0,0,1-.06-0.342l-0.07-.11c-0.05,0-.07.076-0.08,0.175s-0.03.514-.03,0.884a0.184,0.184,0,0,0,.13.23,2.21,2.21,0,0,0,.97.172,1.884,1.884,0,0,0,1.06-.275,1.368,1.368,0,0,0,.63-1.174,2.139,2.139,0,0,0-1.09-1.725m11.09-36.712a8.221,8.221,0,0,1,.27-2.45,4.306,4.306,0,0,0-.18-2.441,4.413,4.413,0,0,0-1.03-2.651c-0.61-.834-1.59-0.958-2.34-1.566a3.531,3.531,0,0,0-2.55-.663,7.774,7.774,0,0,1-1.7-.247,4.551,4.551,0,0,0-2.5.27,6.222,6.222,0,0,0-1.77.4,5.213,5.213,0,0,0-1.99,1.325,3.32,3.32,0,0,0-.96,1.42,2.037,2.037,0,0,0,.63,1.947,1.562,1.562,0,0,1,.59.465,7.307,7.307,0,0,1-.51,1.433c-0.31.538,0.49,0.841,0.2,1.4l-1.11,2a2.125,2.125,0,0,0-.31.919c0.13,0.559.8,0.349,1.13,0.68,0.24,0.307-.13.532-0.15,0.825-0.08.229,0.31,0.355,0.15,0.572a1.007,1.007,0,0,0,.28.934,1.875,1.875,0,0,0,.1,1.308c0.86,0.618,2.19.134,3.1,0.593a1.7,1.7,0,0,1,.36,1.493,11.631,11.631,0,0,1-2.64,5.78,0.8,0.8,0,0,0-.16.737,0.942,0.942,0,0,0,.68-0.015c2.46-.839,4.38-3.008,6.77-4.021a13.6,13.6,0,0,1,2.99-.841,0.771,0.771,0,0,0,.05-0.8,10.04,10.04,0,0,1-.98-4.186,1.285,1.285,0,0,1,1.01-.883,2.491,2.491,0,0,0,1.32-1.4,4.869,4.869,0,0,0,1.25-2.338" transform="translate(-6952.19 -50)"/>
</svg>
